<svg xmlns="http://www.w3.org/2000/svg" width="1200" height="680" viewBox="0 0 1200 680">
<rect width="100%" height="100%" fill="#f8fafc"/>
<text x="55" y="55" font-family="Arial,sans-serif" font-size="28" font-weight="700" fill="#0f172a">FEVER 多智能体规模实验 v1</text>
<text x="55" y="88" font-family="Arial,sans-serif" font-size="15" fill="#475569">32 次唯一推演 · CN/US 六类事件 · 4/6/8 角色同事件消融</text>
<rect x="45" y="112" width="345" height="420" rx="14" fill="#ffffff" stroke="#e2e8f0"/>
<rect x="410" y="112" width="345" height="420" rx="14" fill="#ffffff" stroke="#e2e8f0"/>
<rect x="775" y="112" width="380" height="420" rx="14" fill="#ffffff" stroke="#e2e8f0"/>
<text x="70" y="150" font-family="Arial,sans-serif" font-size="19" font-weight="700" fill="#0f172a">自主行动数</text>
<text x="70" y="176" font-family="Arial,sans-serif" font-size="13" fill="#64748b">同一事件的平均值；越多表示行动面更广</text>
<text x="435" y="150" font-family="Arial,sans-serif" font-size="19" font-weight="700" fill="#0f172a">最终情景覆盖角色数</text>
<text x="435" y="176" font-family="Arial,sans-serif" font-size="13" fill="#64748b">情景分支实际引用的不同角色</text>
<text x="800" y="150" font-family="Arial,sans-serif" font-size="19" font-weight="700" fill="#0f172a">预测价值：两种证据</text>
<rect x="85" y="347.6" width="56" height="92.4" rx="6" fill="#60a5fa"/>
<text x="113" y="338.6" text-anchor="middle" font-family="Arial,sans-serif" font-size="14" font-weight="700" fill="#334155">10.50</text>
<text x="113" y="468" text-anchor="middle" font-family="Arial,sans-serif" font-size="14" fill="#475569">4 角色</text>
<rect x="450" y="330.0" width="56" height="110.0" rx="6" fill="#60a5fa"/>
<text x="478" y="321.0" text-anchor="middle" font-family="Arial,sans-serif" font-size="14" font-weight="700" fill="#334155">4.00</text>
<text x="478" y="468" text-anchor="middle" font-family="Arial,sans-serif" font-size="14" fill="#475569">4 角色</text>
<rect x="180" y="290.4" width="56" height="149.6" rx="6" fill="#34d399"/>
<text x="208" y="281.4" text-anchor="middle" font-family="Arial,sans-serif" font-size="14" font-weight="700" fill="#334155">17.00</text>
<text x="208" y="468" text-anchor="middle" font-family="Arial,sans-serif" font-size="14" fill="#475569">6 角色</text>
<rect x="545" y="336.875" width="56" height="103.125" rx="6" fill="#34d399"/>
<text x="573" y="327.875" text-anchor="middle" font-family="Arial,sans-serif" font-size="14" font-weight="700" fill="#334155">3.75</text>
<text x="573" y="468" text-anchor="middle" font-family="Arial,sans-serif" font-size="14" fill="#475569">6 角色</text>
<rect x="275" y="231.0" width="56" height="209.0" rx="6" fill="#f59e0b"/>
<text x="303" y="222.0" text-anchor="middle" font-family="Arial,sans-serif" font-size="14" font-weight="700" fill="#334155">23.75</text>
<text x="303" y="468" text-anchor="middle" font-family="Arial,sans-serif" font-size="14" fill="#475569">8 角色</text>
<rect x="640" y="323.125" width="56" height="116.875" rx="6" fill="#f59e0b"/>
<text x="668" y="314.125" text-anchor="middle" font-family="Arial,sans-serif" font-size="14" font-weight="700" fill="#334155">4.25</text>
<text x="668" y="468" text-anchor="middle" font-family="Arial,sans-serif" font-size="14" fill="#475569">8 角色</text>
<text x="800" y="190" font-family="Arial,sans-serif" font-size="14" font-weight="700" fill="#334155">历史事件概率（12 事件 / 24 目标）</text>
<text x="800" y="221" font-family="Arial,sans-serif" font-size="25" font-weight="700" fill="#059669">Brier 0.1573 → 0.1525</text>
<text x="800" y="248" font-family="Arial,sans-serif" font-size="14" fill="#047857">相对改善 3.06% · 11/12 事件未变差 · 8/9 概率调整改善</text>
<line x1="800" y1="279" x2="1130" y2="279" stroke="#e2e8f0"/>
<text x="800" y="316" font-family="Arial,sans-serif" font-size="14" font-weight="700" fill="#334155">T+3 方向资格赛（开发集 n=6）</text>
<text x="800" y="347" font-family="Arial,sans-serif" font-size="25" font-weight="700" fill="#dc2626">Brier 0.635 → 0.949</text>
<text x="800" y="374" font-family="Arial,sans-serif" font-size="14" fill="#b91c1c">未通过：方向未改变，置信度反而过高</text>
<rect x="800" y="404" width="330" height="72" rx="9" fill="#f1f5f9"/>
<text x="816" y="432" font-family="Arial,sans-serif" font-size="14" fill="#334155">完成率 100% · P90 99.5 秒</text>
<text x="816" y="458" font-family="Arial,sans-serif" font-size="14" fill="#334155">单次均价 $0.0041</text>
<text x="55" y="580" font-family="Arial,sans-serif" font-size="18" font-weight="700" fill="#0f172a">结论</text>
<text x="55" y="612" font-family="Arial,sans-serif" font-size="15" fill="#334155">增加角色确实扩展了行动层，但四条情景分支未同步吸收更多角色；下一步应优化情景汇总，而非继续盲目扩容。</text>
<text x="55" y="640" font-family="Arial,sans-serif" font-size="14" fill="#64748b">工程可用性与预测有效性分开报告；合成情景不是新证据，也不是可交易概率。</text>
</svg>